<svg width="154" height="185" viewBox="0 0 154 185" fill="none" xmlns="http://www.w3.org/2000/svg">
<path d="M52.2031 42.3706C61.7053 34.7516 74.36 31.1813 87.6636 29.104C100.967 27.0266 114.952 26.3478 130.355 29.2254C130.355 29.2254 114.345 34.5 105.5 46.5C97.5 53.5 89.0447 82.9942 87.6636 100.5C86.3769 118.038 87.6636 106.869 87.6636 127C87.6636 137.879 94.6546 148.927 110 154.5C94.2973 159.241 90.3025 169.638 79.0916 168.1C67.7535 166.624 58.2991 154.162 45.311 143.973C32.3229 133.783 15.8339 125.771 12.6939 114.322C9.68109 102.812 20.0793 87.9916 28.3424 74.7624C36.6055 61.5332 42.828 49.9276 52.2031 42.3706Z" fill="#5B86E5"/>
<path fill-rule="evenodd" clip-rule="evenodd" d="M154 18.4974C148.417 15.8369 142.988 14.1283 137.625 14.4686C124.305 15.3138 111.4 28.9404 102.273 42.4405C93.2188 56.0057 88.016 69.5094 84.3791 82.8716C80.7421 96.2338 78.7442 109.52 81.771 121.277C84.3201 131.072 90.4424 139.779 97.5075 149.828C98.8207 151.696 100.166 153.61 101.528 155.586C102.316 156.729 103.108 157.894 103.907 159.068C111.914 170.837 120.54 183.516 131.277 184.695C138.156 185.367 145.854 181.32 154 176.115V18.4974Z" fill="#36D1DC"/>
</svg>
