<svg width="25" height="19" viewBox="0 0 25 19" fill="none" xmlns="http://www.w3.org/2000/svg">
<path d="M4.25 0.25H20.5C21.4946 0.25 22.4484 0.645088 23.1517 1.34835C23.8549 2.05161 24.25 3.00544 24.25 4V15.25C24.25 16.2446 23.8549 17.1984 23.1517 17.9017C22.4484 18.6049 21.4946 19 20.5 19H4.25C3.25544 19 2.30161 18.6049 1.59835 17.9017C0.895088 17.1984 0.5 16.2446 0.5 15.25V4C0.5 3.00544 0.895088 2.05161 1.59835 1.34835C2.30161 0.645088 3.25544 0.25 4.25 0.25ZM4.25 1.5C3.66346 1.49902 3.09544 1.70533 2.64625 2.0825L12.375 8.4L22.1038 2.0825C21.6545 1.70552 21.0865 1.49923 20.5 1.5H4.25ZM12.375 9.89L1.9175 3.1C1.80661 3.38709 1.74982 3.69223 1.75 4V15.25C1.75 15.913 2.01339 16.5489 2.48223 17.0178C2.95107 17.4866 3.58696 17.75 4.25 17.75H20.5C21.163 17.75 21.7989 17.4866 22.2678 17.0178C22.7366 16.5489 23 15.913 23 15.25V4C23 3.6825 22.9412 3.37875 22.8325 3.1L12.375 9.88875V9.89Z" fill="#CCCCCC"/>
</svg>
