<svg width="138" height="171" viewBox="0 0 138 171" fill="none" xmlns="http://www.w3.org/2000/svg">
<path d="M41.3406 38.3311C49.9743 29.7405 62.1751 24.8384 75.1806 21.3515C88.186 17.8645 95.6308 16.7959 111.253 18.0112C105.376 17.7075 102.425 19.0279 104.508 38.4143C106.089 68.5945 102.019 67.8429 102.517 85.396C103.111 102.971 112.521 113.002 111.253 140.088C96.1471 146.479 86.4917 158.831 75.1806 158.5C63.7497 158.244 59.3468 148.831 45.3443 140.088C31.3418 131.344 14.091 125.14 9.74577 114.093C5.52028 102.97 14.2755 87.1234 21.0777 73.0871C27.8799 59.0507 32.8267 46.8466 41.3406 38.3311Z" fill="#5B86E5"/>
<path fill-rule="evenodd" clip-rule="evenodd" d="M128 7.69379C127.054 7.7425 125.976 7.80847 124.735 7.88723C111.415 8.7324 98.5102 22.359 89.3831 35.8591C80.3291 49.4243 75.1263 62.928 71.4893 76.2902C67.8524 89.6524 65.8544 102.938 68.8812 114.696C70.8183 122.138 75.9937 128.131 81.7472 134.792C84.9726 138.527 88.3798 142.471 91.5 147C97 162 108.193 169.203 120 170.5C122.895 170.783 125.561 169.634 128 167.56V7.69379Z" fill="#36D1DC"/>
</svg>
