<svg width="136" height="211" viewBox="0 0 136 211" fill="none" xmlns="http://www.w3.org/2000/svg">
<path d="M52.2031 46.2492C61.7053 38.6303 74.36 35.0599 87.6636 32.9826C100.967 30.9052 114.952 30.2264 130.355 33.104C145.726 36.0761 162.547 42.5102 168.022 54.552C173.496 66.5938 167.749 84.1813 166.368 101.687C165.082 119.225 168.254 136.715 160.669 145.523C153.084 154.332 134.581 154.617 118.845 159.452C103.143 164.193 90.3025 173.517 79.0916 171.979C67.7535 170.503 58.2991 158.041 45.311 147.851C32.3229 137.661 15.8339 129.65 12.6939 118.201C9.68109 106.69 20.0793 91.8702 28.3424 78.641C36.6055 65.4118 42.828 53.8062 52.2031 46.2492Z" fill="#5B86E5"/>
<path d="M81.771 125.277C78.7442 113.52 80.7421 100.234 84.3791 86.8716C88.016 73.5094 93.2188 60.0057 102.273 46.4405C111.4 32.9404 124.305 19.3138 137.625 18.4686C150.944 17.6235 164.674 29.4168 180.148 37.0423C195.69 44.59 213.045 47.8919 217.961 58.2615C222.877 68.6311 215.431 86.2762 213.31 102.939C211.115 119.537 214.315 135.074 208.235 145.148C202.159 155.365 186.796 159.832 172.045 168.469C157.293 177.107 143.08 189.849 131.277 188.695C119.469 187.398 110.214 172.193 101.528 159.586C92.8417 146.979 84.7939 136.892 81.771 125.277Z" fill="#36D1DC"/>
</svg>
