<svg width="257" height="217" viewBox="0 0 257 217" fill="none" xmlns="http://www.w3.org/2000/svg">
<g filter="url(#filter0_d_8_20)">
<path d="M52.2031 52.2492C61.7053 44.6303 74.36 41.0599 87.6636 38.9826C100.967 36.9052 114.952 36.2264 130.355 39.104C145.726 42.0761 162.547 48.5102 168.022 60.552C173.496 72.5938 167.749 90.1813 166.368 107.687C165.082 125.225 168.254 142.715 160.669 151.523C153.084 160.332 134.581 160.617 118.845 165.452C103.143 170.193 90.3025 179.517 79.0916 177.979C67.7535 176.503 58.2991 164.041 45.311 153.851C32.3229 143.661 15.8339 135.65 12.6939 124.201C9.68109 112.69 20.0793 97.8702 28.3424 84.641C36.6055 71.4118 42.828 59.8062 52.2031 52.2492Z" fill="#5B86E5"/>
<path d="M81.771 131.277C78.7442 119.52 80.7421 106.234 84.3791 92.8716C88.016 79.5094 93.2188 66.0057 102.273 52.4405C111.4 38.9404 124.305 25.3138 137.625 24.4686C150.944 23.6235 164.674 35.4168 180.148 43.0424C195.69 50.59 213.045 53.892 217.961 64.2615C222.877 74.6311 215.431 92.2762 213.31 108.939C211.115 125.537 214.315 141.074 208.235 151.148C202.159 161.365 186.796 165.832 172.045 174.469C157.293 183.107 143.08 195.849 131.277 194.695C119.469 193.398 110.214 178.193 101.528 165.586C92.8417 152.979 84.7939 142.892 81.771 131.277Z" fill="#36D1DC"/>
</g>
<defs>
<filter id="filter0_d_8_20" x="8.16177" y="24.4256" width="215.447" height="178.343" filterUnits="userSpaceOnUse" color-interpolation-filters="sRGB">
<feFlood flood-opacity="0" result="BackgroundImageFix"/>
<feColorMatrix in="SourceAlpha" type="matrix" values="0 0 0 0 0 0 0 0 0 0 0 0 0 0 0 0 0 0 127 0" result="hardAlpha"/>
<feOffset dy="4"/>
<feGaussianBlur stdDeviation="2"/>
<feComposite in2="hardAlpha" operator="out"/>
<feColorMatrix type="matrix" values="0 0 0 0 0 0 0 0 0 0 0 0 0 0 0 0 0 0 0.25 0"/>
<feBlend mode="normal" in2="BackgroundImageFix" result="effect1_dropShadow_8_20"/>
<feBlend mode="normal" in="SourceGraphic" in2="effect1_dropShadow_8_20" result="shape"/>
</filter>
</defs>
</svg>
