<svg width="24" height="26" viewBox="0 0 24 26" fill="none" xmlns="http://www.w3.org/2000/svg">
<path d="M7.67426 2.58375C6.12659 3.01029 4.58944 3.47409 3.06413 3.97475C2.92485 4.01987 2.80105 4.10319 2.70681 4.21524C2.61258 4.32729 2.55171 4.46355 2.53113 4.6085C1.63088 11.3636 3.71088 16.2922 6.19226 19.539C7.24285 20.9274 8.49555 22.1505 9.90863 23.1676C10.4709 23.5641 10.9681 23.8501 11.3598 24.0338C11.5548 24.1264 11.714 24.1881 11.8359 24.2255C11.8892 24.2442 11.9441 24.2578 12 24.2661C12.0552 24.2572 12.1096 24.2436 12.1625 24.2255C12.286 24.1881 12.4453 24.1264 12.6403 24.0338C13.0303 23.8501 13.5291 23.5625 14.0914 23.1676C15.5045 22.1505 16.7572 20.9274 17.8078 19.539C20.2891 16.2939 22.3691 11.3636 21.4689 4.6085C21.4485 4.46348 21.3877 4.32713 21.2934 4.21505C21.1992 4.10298 21.0753 4.0197 20.9359 3.97475C19.878 3.62863 18.0921 3.06475 16.3258 2.58537C14.522 2.09625 12.8629 1.73388 12 1.73388C11.1388 1.73388 9.47801 2.09625 7.67426 2.58537V2.58375ZM7.24201 0.91C9.00513 0.430625 10.8788 0 12 0C13.1213 0 14.9949 0.430625 16.758 0.91C18.5618 1.3975 20.3801 1.97437 21.4494 2.32375C21.8964 2.47138 22.2928 2.74213 22.5929 3.10489C22.893 3.46765 23.0846 3.9077 23.1459 4.3745C24.1144 11.6496 21.867 17.0414 19.1403 20.6082C17.984 22.1341 16.6052 23.4778 15.0501 24.5944C14.5124 24.9808 13.9427 25.3205 13.3471 25.61C12.8921 25.8245 12.403 26 12 26C11.597 26 11.1095 25.8245 10.6529 25.61C10.0573 25.3205 9.48761 24.9808 8.94988 24.5944C7.3948 23.4777 6.01608 22.1341 4.85976 20.6082C2.13301 17.0414 -0.114366 11.6496 0.854134 4.3745C0.915376 3.9077 1.10705 3.46765 1.40715 3.10489C1.70724 2.74213 2.10358 2.47138 2.55063 2.32375C4.10282 1.81481 5.66707 1.34343 7.24201 0.91Z" fill="#CCCCCC"/>
<path d="M14.4375 10.5625C14.4378 11.0668 14.2816 11.5587 13.9906 11.9706C13.6995 12.3824 13.2879 12.6938 12.8125 12.8619L13.4381 16.0956C13.4609 16.2132 13.4574 16.3344 13.4278 16.4505C13.3982 16.5666 13.3434 16.6747 13.2671 16.7671C13.1909 16.8595 13.0951 16.9339 12.9867 16.985C12.8784 17.0361 12.76 17.0625 12.6403 17.0625H11.3598C11.2401 17.0623 11.122 17.0356 11.0138 16.9845C10.9056 16.9333 10.8101 16.8589 10.734 16.7665C10.6579 16.6741 10.6032 16.5661 10.5737 16.4501C10.5443 16.3342 10.5408 16.2131 10.5635 16.0956L11.1875 12.8619C10.7662 12.7129 10.394 12.4511 10.1115 12.1049C9.82901 11.7587 9.6471 11.3415 9.58566 10.899C9.52421 10.4564 9.5856 10.0055 9.76311 9.59541C9.94063 9.18537 10.2274 8.83201 10.5922 8.57394C10.9569 8.31587 11.3856 8.16304 11.8314 8.13212C12.2771 8.10121 12.7228 8.19342 13.1197 8.39866C13.5166 8.60391 13.8494 8.9143 14.0818 9.29591C14.3142 9.67753 14.4373 10.1157 14.4375 10.5625Z" fill="#CCCCCC"/>
</svg>
